Toy Story 3 2010 720p TC H264 FEEL-FREE

Genre:Animation | Adventure | Comedy | Family | Fantasy
Language:English
IMDb:http://www.imdb.com/title/tt0435761/
Source:TC.720p.x264-CiRiTH
Sample:yes
Subtitles: ROMANA
............................................
General
Complete name : Toy Story 3 2010 720p TC H264 FEEL-FREE
Format : MPEG-4
Format profile : Base Media
Codec ID : isom
File size : 1.91 GiB
Duration : 1h 41mn
Overall bit rate : 2 688 Kbps
.............................................
Video
ID : 2
Format : AVC
Format/Info : Advanced Video Codec
Format profile : Baseline@L1.3
Format settings, CABAC : No
Format settings, ReFrames : 1 frame
Codec ID : avc1
Codec ID/Info : Advanced Video Coding
Duration : 1h 41mn
Bit rate mode : Variable
Bit rate : 2 541 Kbps
Width : 1 280 pixels
Height : 552 pixels
Display aspect ratio : 2.35:1
Frame rate mode : Constant
Frame rate : 29.970 fps
Resolution : 24 bits
Colorimetry : 4:2:0
Scan type : Progressive
Bits/(Pixel*Frame) : 0.120
Stream size : 1.81 GiB (95%)
Language : English
..............................................
Audio
ID : 1
Format : AAC
Format/Info : Advanced Audio Codec
Format version : Version 4
Format profile : LC
Format settings, SBR : No
Codec ID : 40
Duration : 1h 41mn
Bit rate mode : Constant
Bit rate : 141 Kbps
Channel(s) : 2 channels
Channel positions : L R
Sampling rate : 44.1 KHz
Resolution : 16 bits
Stream size : 103 MiB (5%)
Language : English
...............................................
Plot:
The toys are mistakenly delivered to a day-care center instead of the attic right before Andy leaves for college, and it's up to Woody to convince the other toys that they weren't abandoned and to return home